<svg width="287" height="24" viewBox="0 0 287 24" fill="none" xmlns="http://www.w3.org/2000/svg">
<path d="M8.992 23V14.68L9.536 16.152L0.032 0.599998H2.56L10.912 14.264H9.568L17.92 0.599998H20.288L10.784 16.152L11.328 14.68V23H8.992ZM35.9838 23.192C34.2984 23.192 32.7304 22.9147 31.2798 22.36C29.8504 21.784 28.6024 20.984 27.5358 19.96C26.4904 18.9147 25.6691 17.7093 25.0718 16.344C24.4958 14.9573 24.2078 13.4427 24.2078 11.8C24.2078 10.1573 24.4958 8.65333 25.0718 7.288C25.6691 5.90133 26.4904 4.696 27.5358 3.672C28.6024 2.62667 29.8504 1.82667 31.2798 1.272C32.7091 0.695999 34.2771 0.407999 35.9838 0.407999C37.6691 0.407999 39.2264 0.695999 40.6558 1.272C42.0851 1.82667 43.3224 2.616 44.3678 3.64C45.4344 4.664 46.2558 5.86933 46.8318 7.256C47.4291 8.64267 47.7278 10.1573 47.7278 11.8C47.7278 13.4427 47.4291 14.9573 46.8318 16.344C46.2558 17.7307 45.4344 18.936 44.3678 19.96C43.3224 20.984 42.0851 21.784 40.6558 22.36C39.2264 22.9147 37.6691 23.192 35.9838 23.192ZM35.9838 21.08C37.3278 21.08 38.5651 20.856 39.6958 20.408C40.8478 19.9387 41.8398 19.288 42.6718 18.456C43.5251 17.6027 44.1864 16.6213 44.6558 15.512C45.1251 14.3813 45.3598 13.144 45.3598 11.8C45.3598 10.456 45.1251 9.22933 44.6558 8.12C44.1864 6.98933 43.5251 6.008 42.6718 5.176C41.8398 4.32267 40.8478 3.672 39.6958 3.224C38.5651 2.75467 37.3278 2.52 35.9838 2.52C34.6398 2.52 33.3918 2.75467 32.2398 3.224C31.0878 3.672 30.0851 4.32267 29.2318 5.176C28.3998 6.008 27.7384 6.98933 27.2478 8.12C26.7784 9.22933 26.5438 10.456 26.5438 11.8C26.5438 13.1227 26.7784 14.3493 27.2478 15.48C27.7384 16.6107 28.3998 17.6027 29.2318 18.456C30.0851 19.288 31.0878 19.9387 32.2398 20.408C33.3918 20.856 34.6398 21.08 35.9838 21.08ZM65.2595 23.192C62.4008 23.192 60.1502 22.3707 58.5075 20.728C56.8648 19.0853 56.0435 16.6533 56.0435 13.432V0.599998H58.4115V13.336C58.4115 15.9813 59.0088 17.9333 60.2035 19.192C61.3982 20.4507 63.0835 21.08 65.2595 21.08C67.4568 21.08 69.1528 20.4507 70.3475 19.192C71.5422 17.9333 72.1395 15.9813 72.1395 13.336V0.599998H74.4435V13.432C74.4435 16.6533 73.6222 19.0853 71.9795 20.728C70.3582 22.3707 68.1182 23.192 65.2595 23.192ZM84.7792 23V0.599998H93.1632C95.0619 0.599998 96.6939 0.909332 98.0592 1.528C99.4246 2.12533 100.47 3 101.195 4.152C101.942 5.28267 102.315 6.65867 102.315 8.28C102.315 9.85867 101.942 11.224 101.195 12.376C100.47 13.5067 99.4246 14.3813 98.0592 15C96.6939 15.5973 95.0619 15.896 93.1632 15.896H86.0912L87.1472 14.808V23H84.7792ZM100.075 23L94.3152 14.872H96.8752L102.667 23H100.075ZM87.1472 15L86.0912 13.88H93.0992C95.3392 13.88 97.0352 13.3893 98.1873 12.408C99.3606 11.4267 99.9472 10.0507 99.9472 8.28C99.9472 6.488 99.3606 5.10133 98.1873 4.12C97.0352 3.13867 95.3392 2.648 93.0992 2.648H86.0912L87.1472 1.528V15Z" fill="#A0A0A0"/>
<path d="M117.472 23.384C115.68 23.384 113.963 23.1493 112.32 22.68C110.678 22.1893 109.355 21.56 108.352 20.792L110.112 16.888C111.072 17.5707 112.203 18.136 113.504 18.584C114.827 19.0107 116.16 19.224 117.504 19.224C118.528 19.224 119.35 19.128 119.968 18.936C120.608 18.7227 121.078 18.4347 121.376 18.072C121.675 17.7093 121.824 17.2933 121.824 16.824C121.824 16.2267 121.59 15.7573 121.12 15.416C120.651 15.0533 120.032 14.7653 119.264 14.552C118.496 14.3173 117.643 14.104 116.704 13.912C115.787 13.6987 114.859 13.4427 113.92 13.144C113.003 12.8453 112.16 12.4613 111.392 11.992C110.624 11.5227 109.995 10.904 109.504 10.136C109.035 9.368 108.8 8.38667 108.8 7.192C108.8 5.912 109.142 4.74933 109.824 3.704C110.528 2.63733 111.574 1.79467 112.96 1.176C114.368 0.535999 116.128 0.216 118.24 0.216C119.648 0.216 121.035 0.386666 122.4 0.727999C123.766 1.048 124.971 1.53867 126.016 2.2L124.416 6.136C123.371 5.53867 122.326 5.10133 121.28 4.824C120.235 4.52533 119.211 4.376 118.208 4.376C117.206 4.376 116.384 4.49333 115.744 4.728C115.104 4.96267 114.646 5.272 114.368 5.656C114.091 6.01867 113.952 6.44533 113.952 6.936C113.952 7.512 114.187 7.98133 114.656 8.344C115.126 8.68533 115.744 8.96267 116.512 9.176C117.28 9.38933 118.123 9.60267 119.04 9.816C119.979 10.0293 120.907 10.2747 121.824 10.552C122.763 10.8293 123.616 11.2027 124.384 11.672C125.152 12.1413 125.771 12.76 126.24 13.528C126.731 14.296 126.976 15.2667 126.976 16.44C126.976 17.6987 126.624 18.8507 125.92 19.896C125.216 20.9413 124.16 21.784 122.752 22.424C121.366 23.064 119.606 23.384 117.472 23.384ZM133.719 23V0.599998H138.007L151.223 16.728H149.142V0.599998H154.263V23H150.007L136.759 6.872H138.839V23H133.719ZM167.53 9.624H178.314V13.656H167.53V9.624ZM167.914 18.84H180.106V23H162.762V0.599998H179.69V4.76H167.914V18.84ZM184.487 23L194.471 0.599998H199.591L209.607 23H204.167L195.975 3.224H198.023L189.799 23H184.487ZM189.479 18.2L190.855 14.264H202.375L203.783 18.2H189.479ZM219.771 17.88L219.483 11.896L230.203 0.599998H235.963L226.299 11L223.419 14.072L219.771 17.88ZM215.131 23V0.599998H220.283V23H215.131ZM230.459 23L222.491 13.24L225.883 9.56L236.507 23H230.459ZM246.787 9.624H257.571V13.656H246.787V9.624ZM247.171 18.84H259.363V23H242.019V0.599998H258.947V4.76H247.171V18.84ZM266.687 23V0.599998H276.383C278.389 0.599998 280.117 0.930665 281.567 1.592C283.018 2.232 284.138 3.16 284.927 4.376C285.717 5.592 286.111 7.04267 286.111 8.728C286.111 10.392 285.717 11.832 284.927 13.048C284.138 14.2427 283.018 15.16 281.567 15.8C280.117 16.44 278.389 16.76 276.383 16.76H269.567L271.871 14.488V23H266.687ZM280.927 23L275.327 14.872H280.863L286.527 23H280.927ZM271.871 15.064L269.567 12.632H276.095C277.695 12.632 278.89 12.2907 279.679 11.608C280.469 10.904 280.863 9.944 280.863 8.728C280.863 7.49067 280.469 6.53067 279.679 5.848C278.89 5.16533 277.695 4.824 276.095 4.824H269.567L271.871 2.36V15.064Z" fill="black"/>
</svg>
