<svg width="20" height="14" viewBox="0 0 20 14" fill="none" xmlns="http://www.w3.org/2000/svg">
<path d="M15.2866 13.3813C14.9162 13.2769 14.6367 13.0574 14.4482 12.7227C14.2604 12.3877 14.2121 12.0398 14.3033 11.679L15.5915 6.58317L2.72404 13.7291C2.39707 13.9107 2.05578 13.9513 1.70018 13.8511C1.34582 13.7512 1.06975 13.5365 0.871978 13.207C0.674203 12.8775 0.618708 12.5398 0.705492 12.1939C0.79351 11.8484 1.00101 11.5848 1.32799 11.4032L14.1955 4.25729L8.9171 2.76944C8.54669 2.66503 8.26539 2.45272 8.0732 2.13253C7.88147 1.81311 7.83121 1.47301 7.92241 1.11225C8.01361 0.751479 8.21809 0.482867 8.53583 0.306409C8.85281 0.130378 9.1965 0.0945674 9.56691 0.198978L18.0401 2.58737C18.2253 2.63958 18.3829 2.72006 18.5128 2.82882C18.6419 2.938 18.753 3.07013 18.8461 3.22518C18.9392 3.38024 19.0026 3.53886 19.0363 3.70102C19.0693 3.86362 19.063 4.03511 19.0173 4.21549L16.9197 12.5131C16.8361 12.8438 16.6358 13.0972 16.3189 13.2732C16.0011 13.4497 15.657 13.4857 15.2866 13.3813Z" fill="black"/>
</svg>
